<?xml version="1.0" encoding="utf-8"?>
<!-- Generator: Adobe Illustrator 16.0.0, SVG Export Plug-In . SVG Version: 6.00 Build 0)  -->
<!DOCTYPE svg PUBLIC "-//W3C//DTD SVG 1.1//EN" "http://www.w3.org/Graphics/SVG/1.1/DTD/svg11.dtd">
<svg version="1.1" id="Layer_1" xmlns="http://www.w3.org/2000/svg" xmlns:xlink="http://www.w3.org/1999/xlink" x="0px" y="0px"
	 width="289.89px" height="88.173px" viewBox="0 0 289.89 88.173" enable-background="new 0 0 289.89 88.173" xml:space="preserve">
<g>
	<path fill="#FFFFFF" d="M0.001,42.037v-0.249C0.001,18.393,16.754,0,41.7,0c14.079,0,24.058,4.389,32.562,11.704L61.196,27.429
		c-5.734-4.807-11.479-7.582-19.396-7.582c-11.613,0-20.573,9.76-20.573,22.061v0.234c0,12.942,9.07,22.252,21.845,22.252
		c5.352,0,10.809-1.603,14.146-3.794v-9.304H40.079l5.968-17.887h30.981v37.758c-8.5,6.996-20.306,12.41-34.894,12.41
		C17.113,83.578,0.001,66.336,0.001,42.037"/>
	<path fill="#FFFFFF" d="M197.813,35.964l4.171-16.732h-20.006V0.243l-19.126,9.496v9.493l0,0v16.732l0,0v27.094
		c0,12.04,7.475,19.511,19.379,19.511h17.479v-17.47h-10.392c-5.182,0-7.341-2.165-7.341-7.472V35.964H197.813z"/>
	<path fill="#FFFFFF" d="M252.337,19.232v3.804c-3.67-3.04-8.737-4.807-13.936-4.807c-18.733,0-30.655,15.318-30.655,32.67
		s11.922,32.681,30.655,32.681c5.198,0,10.266-1.774,13.936-4.812v3.8h19.128V19.232H252.337z M252.337,60.777
		c-2.535,3.427-6.078,5.334-10.768,5.334c-9.111,0-14.563-6.848-14.563-15.213c0-8.354,5.452-15.184,14.563-15.184
		c4.689,0,8.232,1.894,10.768,5.315V60.777z"/>
	<path fill="#FFFFFF" d="M124.847,54.322h25.424c0.251-1.896,0.377-3.805,0.377-5.571c0-20.009-14.438-30.523-30.523-30.523
		c-19.503,0-32.678,14.058-32.678,32.67c0,19.513,15.575,32.68,32.294,32.68c12.549,0,22.806-6.081,28.633-15.194l-15.198-10.252
		c-2.543,4.682-6.848,7.98-13.561,7.98c-5.478,0-10.944-2.351-13.646-10.836c-0.082-0.302-0.125-0.643-0.207-0.954h16.667H124.847z
		 M106.079,43.188c0.067-0.201,0.083-0.41,0.15-0.594c1.966-7.105,8.319-9.046,12.749-9.046c5.953,0,11.402,2.659,12.666,8.871
		l0.124,0.769h-7.24h-2.423H106.079z"/>
</g>
</svg>
